<svg xmlns="http://www.w3.org/2000/svg" width="396" height="804" viewBox="0 0 396 804"><path d="M47.154-.057C.31.074.006 46.42 0 46l.426 694.966c-.207 16.188.17 63.63 59.242 63.364C83.789 804.3 150.803 804 198 804c47.2 0 116.504-.168 141.517-.168 55.82 0 56.483-43.835 56.483-70.64l.576-687.585c-.003.42-.445-45.15-47.256-45.406C328.674.313 245.1 0 198 0 150.703 0 85.018.055 47.154-.057zm115.752 41.02a6.625 6.625 0 1 1 0 13.25 6.625 6.625 0 1 1 0-13.25zm26.688 3.61h49.914v.046a2.35 2.35 0 0 1 2.062 2.33 2.35 2.35 0 0 1-2.062 2.33v.12h-49.914v-.11a2.35 2.35 0 0 1-2.123-2.34 2.35 2.35 0 0 1 2.123-2.336zm10.98 686.736c15.288 0 27.68 12.393 27.68 27.681 0 15.287-12.393 27.68-27.68 27.68-15.287 0-27.68-12.393-27.68-27.68 0-15.288 12.392-27.681 27.68-27.681z" fill="#f9f9f9" fill-opacity=".8" fill-rule="evenodd"/><circle cx="200.714" cy="759.286" r="23.635" fill="#f9f9f9"/></svg>